<svg viewBox="0 0 512 512" xmlns="http://www.w3.org/2000/svg">
<path d="M395.636 232.727H116.364C77.866 232.727 46.546 201.407 46.546 162.909C46.546 124.411 77.866 93.091 116.364 93.091H232.728V116.364C232.728 129.217 243.148 139.637 256.001 139.637H395.637C408.49 139.637 418.91 129.217 418.91 116.364V93.091H488.728C501.581 93.091 512.001 82.671 512.001 69.818C512.001 56.965 501.581 46.545 488.728 46.545H418.91V23.273C418.909 10.42 408.489 0 395.636 0H256C243.147 0 232.727 10.42 232.727 23.273V46.546H116.364C52.201 46.545 0 98.746 0 162.909C0 227.072 52.201 279.273 116.364 279.273H395.637C434.136 279.273 465.455 310.593 465.455 349.091C465.455 387.589 434.136 418.909 395.637 418.909H279.273V395.636C279.273 382.783 268.853 372.363 256 372.363H116.364C103.511 372.363 93.091 382.783 93.091 395.636V418.909H23.273C10.42 418.909 0 429.329 0 442.182C0 455.035 10.42 465.455 23.273 465.455H93.091V488.728C93.091 501.581 103.511 512.001 116.364 512.001H256C268.853 512.001 279.273 501.581 279.273 488.728V465.455H395.637C459.8 465.455 512.001 413.254 512.001 349.091C512.001 284.928 459.799 232.727 395.636 232.727ZM279.273 46.545H372.364V93.09H279.273V46.545ZM232.727 465.455H139.636V418.91H232.727V465.455V465.455Z"/>
</svg>
